<svg width="50" height="9" viewBox="0 0 50 9" fill="none" xmlns="http://www.w3.org/2000/svg">
<path d="M3.37202 8.988C2.82802 8.988 2.34002 8.892 1.90802 8.7C1.47602 8.5 1.13202 8.232 0.876018 7.896C0.628018 7.56 0.492018 7.188 0.468018 6.78H2.16002C2.19202 7.036 2.31602 7.248 2.53202 7.416C2.75602 7.584 3.03202 7.668 3.36002 7.668C3.68002 7.668 3.92802 7.604 4.10402 7.476C4.28802 7.348 4.38002 7.184 4.38002 6.984C4.38002 6.768 4.26802 6.608 4.04402 6.504C3.82802 6.392 3.48002 6.272 3.00002 6.144C2.50402 6.024 2.09602 5.9 1.77602 5.772C1.46402 5.644 1.19202 5.448 0.960018 5.184C0.736018 4.92 0.624018 4.564 0.624018 4.116C0.624018 3.748 0.728018 3.412 0.936018 3.108C1.15202 2.804 1.45602 2.564 1.84802 2.388C2.24802 2.212 2.71602 2.124 3.25202 2.124C4.04402 2.124 4.67602 2.324 5.14802 2.724C5.62002 3.116 5.88002 3.648 5.92802 4.32H4.32002C4.29602 4.056 4.18402 3.848 3.98402 3.696C3.79202 3.536 3.53202 3.456 3.20402 3.456C2.90002 3.456 2.66402 3.512 2.49602 3.624C2.33602 3.736 2.25602 3.892 2.25602 4.092C2.25602 4.316 2.36802 4.488 2.59202 4.608C2.81602 4.72 3.16402 4.836 3.63602 4.956C4.11602 5.076 4.51202 5.2 4.82402 5.328C5.13602 5.456 5.40402 5.656 5.62802 5.928C5.86002 6.192 5.98002 6.544 5.98802 6.984C5.98802 7.368 5.88002 7.712 5.66402 8.016C5.45602 8.32 5.15202 8.56 4.75202 8.736C4.36002 8.904 3.90002 8.988 3.37202 8.988Z" fill="#333333"/>
<path d="M15.6231 2.136C16.4391 2.136 17.0951 2.388 17.5911 2.892C18.0951 3.388 18.3471 4.084 18.3471 4.98V8.88H16.6671V5.208C16.6671 4.688 16.5351 4.292 16.2711 4.02C16.0071 3.74 15.6471 3.6 15.1911 3.6C14.7351 3.6 14.3711 3.74 14.0991 4.02C13.8351 4.292 13.7031 4.688 13.7031 5.208V8.88H12.0231V5.208C12.0231 4.688 11.8911 4.292 11.6271 4.02C11.3631 3.74 11.0031 3.6 10.5471 3.6C10.0831 3.6 9.71508 3.74 9.44308 4.02C9.17908 4.292 9.04708 4.688 9.04708 5.208V8.88H7.36708V2.232H9.04708V3.036C9.26308 2.756 9.53908 2.536 9.87508 2.376C10.2191 2.216 10.5951 2.136 11.0031 2.136C11.5231 2.136 11.9871 2.248 12.3951 2.472C12.8031 2.688 13.1191 3 13.3431 3.408C13.5591 3.024 13.8711 2.716 14.2791 2.484C14.6951 2.252 15.1431 2.136 15.6231 2.136Z" fill="#333333"/>
<path d="M22.8933 8.988C22.2533 8.988 21.6773 8.848 21.1653 8.568C20.6533 8.28 20.2493 7.876 19.9533 7.356C19.6653 6.836 19.5213 6.236 19.5213 5.556C19.5213 4.876 19.6693 4.276 19.9653 3.756C20.2693 3.236 20.6813 2.836 21.2013 2.556C21.7213 2.268 22.3013 2.124 22.9413 2.124C23.5813 2.124 24.1613 2.268 24.6813 2.556C25.2013 2.836 25.6093 3.236 25.9053 3.756C26.2093 4.276 26.3613 4.876 26.3613 5.556C26.3613 6.236 26.2053 6.836 25.8933 7.356C25.5893 7.876 25.1733 8.28 24.6453 8.568C24.1253 8.848 23.5413 8.988 22.8933 8.988ZM22.8933 7.524C23.1973 7.524 23.4813 7.452 23.7453 7.308C24.0173 7.156 24.2333 6.932 24.3933 6.636C24.5533 6.34 24.6333 5.98 24.6333 5.556C24.6333 4.924 24.4653 4.44 24.1293 4.104C23.8013 3.76 23.3973 3.588 22.9173 3.588C22.4373 3.588 22.0333 3.76 21.7053 4.104C21.3853 4.44 21.2253 4.924 21.2253 5.556C21.2253 6.188 21.3813 6.676 21.6933 7.02C22.0133 7.356 22.4133 7.524 22.8933 7.524Z" fill="#333333"/>
<path d="M30.5456 8.988C29.9056 8.988 29.3296 8.848 28.8176 8.568C28.3056 8.28 27.9016 7.876 27.6056 7.356C27.3176 6.836 27.1736 6.236 27.1736 5.556C27.1736 4.876 27.3216 4.276 27.6176 3.756C27.9216 3.236 28.3336 2.836 28.8536 2.556C29.3736 2.268 29.9536 2.124 30.5936 2.124C31.2336 2.124 31.8136 2.268 32.3336 2.556C32.8536 2.836 33.2616 3.236 33.5576 3.756C33.8616 4.276 34.0136 4.876 34.0136 5.556C34.0136 6.236 33.8576 6.836 33.5456 7.356C33.2416 7.876 32.8256 8.28 32.2976 8.568C31.7776 8.848 31.1936 8.988 30.5456 8.988ZM30.5456 7.524C30.8496 7.524 31.1336 7.452 31.3976 7.308C31.6696 7.156 31.8856 6.932 32.0456 6.636C32.2056 6.34 32.2856 5.98 32.2856 5.556C32.2856 4.924 32.1176 4.44 31.7816 4.104C31.4536 3.76 31.0496 3.588 30.5696 3.588C30.0896 3.588 29.6856 3.76 29.3576 4.104C29.0376 4.44 28.8776 4.924 28.8776 5.556C28.8776 6.188 29.0336 6.676 29.3456 7.02C29.6656 7.356 30.0656 7.524 30.5456 7.524Z" fill="#333333"/>
<path d="M37.202 3.612V6.828C37.202 7.052 37.254 7.216 37.358 7.32C37.47 7.416 37.654 7.464 37.91 7.464H38.69V8.88H37.634C36.218 8.88 35.51 8.192 35.51 6.816V3.612H34.718V2.232H35.51V0.587999H37.202V2.232H38.69V3.612H37.202Z" fill="#333333"/>
<path d="M43.6423 2.136C44.1463 2.136 44.5943 2.248 44.9863 2.472C45.3783 2.688 45.6823 3.012 45.8983 3.444C46.1223 3.868 46.2343 4.38 46.2343 4.98V8.88H44.5543V5.208C44.5543 4.68 44.4223 4.276 44.1583 3.996C43.8943 3.708 43.5343 3.564 43.0783 3.564C42.6143 3.564 42.2463 3.708 41.9743 3.996C41.7103 4.276 41.5783 4.68 41.5783 5.208V8.88H39.8983V0H41.5783V3.06C41.7943 2.772 42.0823 2.548 42.4423 2.388C42.8023 2.22 43.2023 2.136 43.6423 2.136Z" fill="#333333"/>
<path d="M48.5759 8.964C48.2719 8.964 48.0199 8.872 47.8199 8.688C47.6279 8.496 47.5319 8.26 47.5319 7.98C47.5319 7.7 47.6279 7.468 47.8199 7.284C48.0199 7.092 48.2719 6.996 48.5759 6.996C48.8719 6.996 49.1159 7.092 49.3079 7.284C49.4999 7.468 49.5959 7.7 49.5959 7.98C49.5959 8.26 49.4999 8.496 49.3079 8.688C49.1159 8.872 48.8719 8.964 48.5759 8.964Z" fill="#333333"/>
</svg>
